<?xml version="1.0" encoding="utf-8"?>
<!-- Generator: Adobe Illustrator 26.0.3, SVG Export Plug-In . SVG Version: 6.00 Build 0)  -->
<svg version="1.1" id="Layer_1" xmlns="http://www.w3.org/2000/svg" xmlns:xlink="http://www.w3.org/1999/xlink" x="0px" y="0px"
	 viewBox="0 0 1000 382.3" style="enable-background:new 0 0 1000 382.3;" xml:space="preserve">
<style type="text/css">
	.st0{fill:#00BC8C;}
</style>
<g>
	<polygon class="st0" points="265.1,255.4 245,171.5 206.7,171.5 186.9,255.8 170.2,171.5 134,171.5 166.2,289.4 205.9,289.4 
		225.1,212.9 243.7,289.4 283.6,289.4 315.6,171.5 281.5,171.5 	"/>
	<path class="st0" d="M381.7,169.8c-79-3.5-78.6,124.7,0,121.3c29.4,0,50.3-17.7,56-40.8h-38.5c-8.2,18.6-41,14-41.2-11.2h81.8
		C445.5,200.6,420.3,168.9,381.7,169.8z M358.2,219c2.3-26.9,45.1-27,45.2,0H358.2z"/>
	<path class="st0" d="M532,169.8c-16.9,0-29.8,7.8-36.3,18.4V133h-36.1v156.4h36.1v-16.5c6.5,10.4,19,18.2,36.3,18.2
		C600.4,292.7,601,168,532,169.8z M521.2,259.6c-34,1-34-59.3,0-58.3C555.7,200.2,555.3,260.6,521.2,259.6z"/>
	<path class="st0" d="M858.4,238.3C858.4,238.3,858.4,238.3,858.4,238.3c-8.9,8.7-19.3,15.9-30.7,21c8.5-13,11.7-29.5,8.5-44.7
		c-1.5-7.2-4.5-14.3-10.1-19.1c-5.6-4.8-14-6.7-20.5-3.1c-5.9,3.3-9.2,10.4-15.6,12.9c17.1-21.8,34.6-44.6,40-71.8
		c1.9-9.7,2.1-20.2-2.4-29c-4.5-8.8-14.7-15.2-24.3-12.8c-7.9,2-13.5,9.1-17.7,16.1c-25.9,42.5-28.3,94.6-36,143.7
		c-0.6,3.8-1.3,7.8-3.6,10.9s-6.8,5-10.2,3.1c-4.1-2.2-4.3-7.8-3.9-12.4c1-11.8,2.8-23.6,5.5-35.1c0.9-3.8,1.9-7.7,1.3-11.6
		s-3.3-7.7-7.1-8.3c-2.4-0.4-4.9,0.5-7.2,0c-2.9-0.6-4.9-3-7.3-4.6c-7.8-5.2-18.3-1.8-26.1,3.3c-10.7,7-19.4,17-24.8,28.6
		c-3.3,7-5.3,14.4-8.8,21.3s-8.6,13.3-15.9,16c-3.4,1.2-7.5,1.5-10.4-0.8c-2.8-2.3-3.5-6.3-3.4-9.9c0.2-9.9,4.8-19.2,9.4-28
		c14.7-27.9,31-55.4,39.8-85.7c2.7-9.5,4.7-19.4,3.1-29.1c-1-5.9-3.7-12-8.8-15.2c-6.4-4-15.1-2.4-21.3,1.9
		c-13.6,9.3-21.2,27.1-27.8,41.5c-7.7,16.7-14.1,34.1-18,52.1c-5.8,27-5.8,55.8,3.6,81.7c2,5.6,4.8,11.4,9.7,14.7
		c6.3,4.3,14.9,3.6,22,1c7.2-2.7,13.6-7,20.7-9.9c4.9,9.2,16.6,13.4,26.9,11.8s19.3-8,26.6-15.5c3,8.5,11.1,14.9,20,15.9
		c8.9,1.1,18.3-3.3,23.2-10.8c11.2,3,21.4,10.3,33,10.6c7.2,0.2,14.1-2.4,20.8-5c18.2-6.9,36.6-13.9,52.5-25.1
		c1.2-0.9,2.5-1.9,2.8-3.3c0.3-1.4-0.3-2.7-0.9-4C862.8,247.3,860.6,242.8,858.4,238.3z M627.6,186.5c3.6-22.3,9.4-47.4,23.1-64.9
		c13.8-14.2,5.4,16.9,3.2,23.6c-6.5,20.9-17.3,42.9-27.8,61.7C626.2,200.2,626.7,193.5,627.6,186.5z M708,240.5
		c-1.2,8.3-4.8,19.4-10.8,25.8c-5.5,6.5-14.2,2.6-14.6-5.3c-1.9-19.2,10.5-48.4,31.7-50.8L708,240.5z M779.6,188.1
		c0.7-7.2,21.3-105.7,31.4-68.8c-2,28.7-19.8,53.3-33,77.7C778.4,194.8,778.9,191.8,779.6,188.1z M813.8,235.4
		c-3.7,26.1-10.2,41.2-39.1,30.8c1.4-11.9,1.9-26.9,6.8-38.1C790.7,207.2,820.1,208.7,813.8,235.4z"/>
</g>
</svg>
